<?xml version="1.0" standalone="no"?>
<!DOCTYPE svg PUBLIC "-//W3C//DTD SVG 20010904//EN"
 "http://www.w3.org/TR/2001/REC-SVG-20010904/DTD/svg10.dtd">
<svg version="1.0" xmlns="http://www.w3.org/2000/svg"
 width="682.000000pt" height="614.000000pt" viewBox="0 0 682.000000 614.000000"
 preserveAspectRatio="xMidYMid meet">

<g transform="translate(0.000000,614.000000) scale(0.100000,-0.100000)"
fill="#000000" stroke="none">
<path d="M2530 5929 c-373 -33 -746 -155 -1075 -351 -219 -131 -318 -209 -505
-397 -249 -250 -429 -517 -540 -801 -19 -47 -39 -94 -46 -105 -35 -57 -114
-366 -141 -550 -21 -148 -24 -525 -5 -660 85 -593 327 -1086 731 -1492 402
-402 926 -659 1501 -735 143 -18 500 -15 644 6 129 19 307 53 314 61 3 3 0 16
-6 31 -25 54 -43 210 -53 449 -15 402 -16 417 -39 469 -51 120 -97 356 -107
548 -3 70 -9 132 -13 138 -9 15 -120 26 -120 12 0 -21 -105 -124 -150 -147
-26 -13 -71 -27 -101 -30 -51 -6 -53 -5 -34 10 81 64 115 120 122 204 10 104
-37 230 -140 379 -41 60 -54 72 -71 68 -12 -3 -45 -10 -74 -17 l-53 -11 21
-31 c67 -100 120 -270 120 -384 0 -84 -24 -140 -75 -179 -35 -26 -39 -27 -89
-17 -29 6 -69 18 -90 27 -31 13 -37 19 -32 38 6 23 6 23 -5 2 l-11 -22 -47 20
c-123 54 -279 188 -218 188 24 0 56 44 63 86 7 45 -10 143 -33 187 -16 31 -45
46 -79 39 l-24 -4 25 -42 c27 -46 32 -105 15 -167 l-10 -35 -122 3 c-156 4
-318 19 -431 39 -95 18 -175 59 -316 163 -131 97 -154 143 -108 212 62 92 232
164 552 233 61 14 105 25 99 25 -6 1 -40 20 -75 43 l-64 42 30 6 c67 14 -260
33 -412 25 -221 -12 -240 -11 -323 21 l-74 29 -32 75 c-33 76 -76 215 -90 285
-6 34 -5 36 12 27 31 -17 71 -17 254 -3 164 13 184 12 325 -7 212 -29 532 -38
604 -16 51 15 52 16 32 30 -18 13 -30 13 -96 1 -81 -16 -172 -11 -340 19 -49
8 -119 20 -155 25 -35 5 -68 13 -72 17 -8 8 -28 149 -28 197 l0 34 68 -26
c127 -48 169 -56 282 -50 58 3 130 11 161 18 l57 11 7 57 c4 30 15 78 25 106
10 27 21 67 24 87 5 27 19 47 50 75 37 32 69 83 53 83 -3 0 -33 -11 -68 -24
-149 -56 -619 -129 -619 -96 0 10 46 135 55 151 4 5 14 5 27 -2 36 -19 97 -11
243 31 185 53 245 67 335 76 62 6 78 11 95 32 68 82 96 108 170 157 45 30 122
74 171 96 49 23 99 50 111 62 12 11 29 17 37 14 8 -3 16 0 19 6 3 7 34 52 71
100 36 49 82 119 101 156 42 79 86 127 110 117 42 -16 59 -147 30 -241 -8 -27
-12 -51 -10 -53 2 -3 40 1 83 7 44 7 123 12 176 13 68 1 99 5 107 14 16 20 36
17 42 -5 3 -13 18 -20 51 -25 157 -24 373 -150 512 -299 88 -94 217 -267 200
-267 -2 0 -14 16 -27 36 -28 46 -103 94 -145 94 -26 0 -38 -7 -57 -32 -119
-163 -138 -553 -37 -773 44 -97 108 -142 174 -124 36 10 90 62 107 101 24 59
18 19 -11 -66 -62 -184 -150 -289 -332 -399 l-58 -34 61 -23 c33 -12 68 -31
77 -43 55 -70 100 -107 131 -107 37 0 86 23 99 46 6 11 16 13 36 8 l27 -7 -30
-31 c-119 -124 -84 -349 88 -553 66 -78 109 -103 192 -110 l61 -6 -52 49
c-166 154 -218 385 -133 596 l15 36 51 -5 c50 -5 52 -4 53 21 3 43 12 58 35
54 32 -4 47 -33 32 -58 -12 -18 -11 -19 20 -14 17 3 71 17 119 30 48 13 89 24
93 24 3 0 -2 -11 -11 -25 -9 -14 -15 -28 -12 -30 2 -2 12 12 23 31 17 32 22
35 49 30 33 -7 68 -34 61 -47 -3 -4 -10 -31 -15 -60 -19 -99 20 -175 114 -225
46 -24 55 -33 50 -49 -11 -38 -71 -160 -91 -184 l-20 -24 -32 46 c-18 26 -34
47 -37 47 -3 0 11 -23 32 -52 l37 -52 -54 -48 c-64 -58 -154 -104 -227 -118
-51 -9 -177 1 -206 16 -6 4 36 -41 94 -100 83 -84 109 -105 125 -100 11 3 75
32 143 65 138 65 258 141 442 280 69 52 135 101 147 109 42 29 79 353 70 620
-13 382 -98 717 -268 1059 -133 269 -282 473 -506 692 -533 522 -1267 784
-2013 718z m1300 -339 c0 -29 -11 -50 -32 -61 -43 -23 -66 43 -28 81 16 16 25
18 40 10 11 -6 20 -19 20 -30z m-1202 -86 c13 -9 22 -26 22 -41 0 -37 -52
-114 -116 -172 -56 -51 -115 -77 -239 -102 -33 -7 -97 -28 -143 -46 -135 -55
-179 -36 -134 60 11 23 23 53 27 67 22 76 166 162 377 224 97 29 174 33 206
10z m652 -54 c38 -34 70 -64 70 -69 0 -13 -70 -41 -105 -41 -39 0 -65 28 -65
70 0 27 18 100 25 100 3 0 36 -27 75 -60z m-1375 25 c31 -30 31 -34 3 -76 -14
-21 -46 -45 -83 -64 -33 -16 -87 -46 -120 -67 -121 -74 -187 -86 -193 -36 -5
38 18 76 91 151 77 80 148 117 225 117 43 0 58 -5 77 -25z m495 -339 c9 -12 7
-24 -8 -60 -31 -70 -70 -83 -121 -40 -43 36 -39 56 17 87 53 30 94 34 112 13z
m-430 -98 c29 -24 75 -18 136 18 22 13 50 24 62 24 20 0 20 -1 -5 -45 -28 -50
-58 -69 -165 -104 -96 -32 -111 -28 -120 33 -4 33 -16 58 -34 77 -15 16 -26
31 -23 33 2 3 27 13 54 23 l50 19 10 -29 c6 -16 22 -38 35 -49z m2650 -430 c7
-16 6 -38 -2 -71 -19 -72 -33 -67 -59 20 -10 34 -9 45 1 58 18 22 49 18 60 -7z
m-619 -61 c20 -13 47 -48 66 -84 26 -51 33 -58 36 -40 5 28 9 -38 10 -165 l1
-97 26 6 c22 5 41 11 115 37 l20 8 -20 -13 c-11 -7 -47 -23 -80 -35 l-60 -22
-11 -58 c-7 -33 -12 -55 -13 -51 -1 5 -16 -10 -33 -34 -83 -106 -165 -100
-236 20 -85 144 -59 398 53 517 39 41 77 44 126 11z m343 -953 c26 -25 20 -44
-14 -44 -32 0 -47 18 -36 45 7 19 30 19 50 -1z m335 2 c17 -20 -26 -61 -46
-45 -18 15 -16 29 5 45 22 17 27 17 41 0z m425 -132 c21 -8 21 -61 1 -139 -24
-90 -79 -162 -173 -227 l-44 -30 -30 28 c-51 49 -71 99 -66 169 3 50 10 70 32
100 26 34 30 36 39 19 5 -11 11 -21 13 -23 2 -2 26 17 53 41 62 56 129 80 175
62z m-944 -61 c0 -10 -5 -25 -10 -33 -14 -22 -30 0 -19 28 10 26 29 29 29 5z
m-1050 -1004 c-12 -22 -25 -24 -36 -7 -8 12 24 40 38 32 4 -3 3 -14 -2 -25z
m-1495 -913 c69 -48 95 -91 95 -156 0 -55 -13 -70 -57 -70 -28 0 -46 12 -101
63 -37 34 -92 78 -122 97 -30 18 -57 35 -59 37 -11 8 49 55 85 68 52 19 87 10
159 -39z"/>
<path d="M5694 5695 c-16 -24 -16 -27 1 -45 31 -34 75 -19 75 25 0 48 -49 60
-76 20z"/>
<path d="M5449 5661 c-25 -10 -60 -16 -77 -13 -51 7 -68 -54 -21 -79 11 -5 19
-17 19 -26 0 -29 22 -89 41 -114 l19 -24 -1 60 c-1 39 4 72 14 92 23 43 66 93
82 93 7 0 18 7 25 15 11 13 8 15 -21 15 -19 -1 -55 -9 -80 -19z"/>
<path d="M5548 5600 c-47 -25 -72 -71 -64 -114 4 -17 8 -43 10 -57 6 -53 78
-128 141 -149 71 -23 152 17 189 94 22 47 21 121 -4 160 -45 74 -193 110 -272
66z m171 -33 c33 -16 59 -54 66 -99 6 -33 3 -41 -35 -82 -66 -72 -141 -72
-196 -1 -58 77 -33 175 51 198 26 7 83 -1 114 -16z"/>
<path d="M6044 5453 c2 -10 7 -29 11 -41 9 -32 -3 -92 -19 -92 -17 0 -50 -31
-54 -50 -2 -8 -10 -19 -18 -25 -39 -25 -49 -34 -43 -39 3 -4 19 -2 34 4 16 6
36 8 44 4 36 -16 61 -14 81 6 11 11 20 27 20 36 0 8 5 12 10 9 6 -4 8 -10 6
-14 -4 -7 84 -55 103 -56 3 -1 16 -4 28 -9 l23 -7 -31 -61 c-31 -61 -32 -88
-4 -88 9 0 42 -13 75 -30 33 -16 64 -30 69 -30 8 0 91 139 91 153 0 3 -25 20
-56 37 -51 30 -115 80 -101 80 3 0 -17 22 -45 49 -35 32 -57 47 -70 43 -14 -3
-16 -7 -7 -18 6 -8 15 -12 18 -9 4 2 8 -2 8 -10 0 -18 -7 -18 -44 -4 -20 7
-24 12 -14 19 9 5 11 17 7 34 -4 18 -2 26 6 26 7 0 4 8 -8 20 -19 19 -22 20
-53 4 -18 -9 -35 -13 -39 -9 -4 4 -2 10 4 12 21 7 -5 73 -28 73 -5 0 -7 -8 -4
-17z"/>
<path d="M6195 5409 c-8 -35 11 -63 60 -84 16 -8 63 -32 103 -55 65 -37 72
-39 61 -19 -30 57 -174 189 -205 189 -7 0 -15 -14 -19 -31z"/>
<path d="M5495 5293 c0 -25 4 -28 35 -29 19 0 44 -4 54 -9 35 -15 8 12 -38 39
-25 14 -46 26 -48 26 -2 0 -4 -12 -3 -27z"/>
<path d="M5910 5310 c0 -5 5 -10 10 -10 6 0 10 5 10 10 0 6 -4 10 -10 10 -5 0
-10 -4 -10 -10z"/>
<path d="M5931 5283 c-15 -33 -11 -34 17 -7 17 17 19 23 9 27 -9 3 -19 -5 -26
-20z"/>
<path d="M5615 5250 c-3 -5 -1 -10 4 -10 6 0 11 5 11 10 0 6 -2 10 -4 10 -3 0
-8 -4 -11 -10z"/>
<path d="M5646 5242 c-3 -5 11 -14 32 -20 83 -25 232 -35 232 -16 0 7 -26 12
-72 13 -67 2 -133 12 -170 26 -9 4 -19 2 -22 -3z"/>
<path d="M5981 5140 c-19 -11 -6 -40 18 -40 14 0 18 5 14 20 -7 26 -15 31 -32
20z"/>
<path d="M5991 5034 c-12 -15 -18 -31 -13 -36 30 -30 263 -81 283 -61 5 5 -27
26 -84 53 -50 25 -94 48 -97 52 -4 4 -20 10 -37 14 -25 5 -34 1 -52 -22z"/>
<path d="M2610 5020 c-236 -50 -432 -175 -506 -322 -91 -181 -102 -460 -29
-737 36 -134 101 -291 160 -385 47 -76 54 -83 125 -119 333 -167 815 -7 979
324 24 49 49 118 59 166 16 81 17 83 52 94 19 6 38 14 41 18 4 3 1 44 -7 91
-17 109 -18 307 -2 433 12 96 11 100 -11 142 -71 134 -262 260 -453 299 -105
22 -298 20 -408 -4z m639 -194 c58 -22 68 -39 85 -128 l7 -38 -105 0 c-57 0
-112 -3 -121 -7 -19 -7 -19 -11 7 145 l10 63 32 -7 c17 -3 55 -16 85 -28z m87
-876 c16 0 -8 -123 -31 -158 -1 -1 -16 3 -32 9 -29 10 -30 13 -23 42 5 18 14
52 20 75 10 38 14 43 33 38 12 -3 27 -6 33 -6z"/>
<path d="M1975 3869 c-51 -21 -85 -45 -85 -61 0 -4 29 -8 64 -8 36 0 76 -4 90
-10 14 -5 26 -7 26 -4 0 13 -35 104 -40 103 -3 0 -27 -9 -55 -20z"/>
<path d="M2105 3564 c-22 -15 -31 -23 -20 -19 65 23 75 28 75 36 0 14 -12 10
-55 -17z"/>
<path d="M3590 3391 c-84 -45 -298 -109 -438 -131 -35 -6 -65 -19 -86 -37 -18
-15 -41 -33 -52 -39 -18 -11 -18 -13 5 -65 36 -83 49 -124 75 -249 22 -104 83
-296 92 -288 2 2 -3 40 -10 83 -8 44 -17 118 -21 164 l-7 84 32 -23 c33 -24
97 -32 137 -17 18 6 22 4 26 -15 4 -21 4 -20 6 4 1 19 18 43 57 80 61 58 144
177 170 245 l17 42 55 -89 c31 -50 67 -103 79 -118 22 -26 22 -26 -3 43 -44
117 -83 253 -86 300 -2 25 -5 45 -8 45 -3 -1 -21 -9 -40 -19z"/>
<path d="M4601 3244 c0 -11 3 -14 6 -6 3 7 2 16 -1 19 -3 4 -6 -2 -5 -13z"/>
<path d="M4593 3165 c0 -33 2 -45 4 -27 2 18 2 45 0 60 -2 15 -4 0 -4 -33z"/>
<path d="M4602 3080 c0 -14 2 -19 5 -12 2 6 2 18 0 25 -3 6 -5 1 -5 -13z"/>
<path d="M4620 3015 c0 -5 5 -17 10 -25 5 -8 10 -10 10 -5 0 6 -5 17 -10 25
-5 8 -10 11 -10 5z"/>
<path d="M2255 2990 c10 -11 20 -20 23 -20 3 0 -3 9 -13 20 -10 11 -20 20 -23
20 -3 0 3 -9 13 -20z"/>
<path d="M3566 3000 c-66 -20 -114 -99 -101 -166 8 -45 57 -100 101 -114 100
-33 209 62 189 166 -8 46 -58 101 -103 114 -42 11 -47 11 -86 0z"/>
<path d="M4640 2964 c0 -6 7 -19 16 -30 14 -18 14 -18 3 6 -14 31 -19 36 -19
24z"/>
<path d="M2300 2935 c13 -14 26 -25 28 -25 3 0 -5 11 -18 25 -13 14 -26 25
-28 25 -3 0 5 -11 18 -25z"/>
<path d="M2345 2876 c10 -14 19 -26 22 -26 7 0 -17 39 -28 46 -6 3 -3 -5 6
-20z"/>
<path d="M4690 2870 c6 -11 13 -20 16 -20 2 0 0 9 -6 20 -6 11 -13 20 -16 20
-2 0 0 -9 6 -20z"/>
<path d="M2392 2795 c12 -24 23 -43 26 -41 4 5 -36 86 -43 86 -3 0 5 -20 17
-45z"/>
<path d="M3352 2810 c0 -14 2 -19 5 -12 2 6 2 18 0 25 -3 6 -5 1 -5 -13z"/>
<path d="M3361 2764 c0 -11 3 -14 6 -6 3 7 2 16 -1 19 -3 4 -6 -2 -5 -13z"/>
<path d="M3372 2725 c0 -11 4 -31 8 -45 6 -20 8 -21 8 -5 0 11 -4 31 -8 45 -6
20 -8 21 -8 5z"/>
<path d="M5155 2654 c-173 -134 -370 -253 -527 -320 l-67 -28 40 -43 c21 -23
39 -45 39 -48 0 -4 -12 -23 -26 -43 l-26 -37 30 35 31 35 59 -58 58 -58 105 3
104 3 57 110 c75 144 210 488 196 500 -2 2 -34 -22 -73 -51z"/>
<path d="M2442 2640 c0 -19 2 -27 5 -17 2 9 2 25 0 35 -3 9 -5 1 -5 -18z"/>
<path d="M3391 2634 c0 -11 3 -14 6 -6 3 7 2 16 -1 19 -3 4 -6 -2 -5 -13z"/>
<path d="M3401 2594 c0 -11 3 -14 6 -6 3 7 2 16 -1 19 -3 4 -6 -2 -5 -13z"/>
<path d="M2443 2565 c0 -22 2 -30 4 -17 2 12 2 30 0 40 -3 9 -5 -1 -4 -23z"/>
<path d="M3412 2550 c0 -14 2 -19 5 -12 2 6 2 18 0 25 -3 6 -5 1 -5 -13z"/>
<path d="M2431 2504 c0 -11 3 -14 6 -6 3 7 2 16 -1 19 -3 4 -6 -2 -5 -13z"/>
<path d="M3422 2505 c0 -11 4 -31 8 -45 6 -20 8 -21 8 -5 0 11 -4 31 -8 45 -6
20 -8 21 -8 5z"/>
<path d="M3442 2410 c0 -14 2 -19 5 -12 2 6 2 18 0 25 -3 6 -5 1 -5 -13z"/>
<path d="M3452 2365 c0 -21 25 -107 27 -90 0 6 -6 33 -13 60 -8 28 -14 41 -14
30z"/>
<path d="M3481 2250 c0 -8 6 -28 14 -45 17 -39 18 -21 0 25 -7 19 -14 28 -14
20z"/>
<path d="M3510 2165 c0 -5 5 -17 10 -25 5 -8 10 -10 10 -5 0 6 -5 17 -10 25
-5 8 -10 11 -10 5z"/>
<path d="M3530 2117 c0 -24 93 -184 157 -267 82 -107 143 -179 143 -168 0 4
-20 30 -45 58 -81 91 -153 194 -204 290 -28 52 -51 91 -51 87z"/>
<path d="M4865 1980 c14 -15 21 -17 32 -9 22 19 15 29 -19 29 -30 0 -31 0 -13
-20z"/>
<path d="M4406 1825 c-9 -26 -7 -32 5 -12 6 10 9 21 6 23 -2 3 -7 -2 -11 -11z"/>
<path d="M5064 1692 c0 -93 -42 -181 -128 -266 -72 -72 -128 -107 -221 -137
-62 -21 -66 -24 -49 -37 32 -24 153 -82 170 -82 25 0 120 55 190 111 95 75
184 194 184 247 0 37 -47 123 -98 180 l-48 53 0 -69z"/>
<path d="M4362 1640 c0 -19 2 -27 5 -17 2 9 2 25 0 35 -3 9 -5 1 -5 -18z"/>
<path d="M4095 1518 c-38 -11 -73 -25 -77 -32 -4 -6 -8 -41 -8 -77 l0 -66 -97
-22 c-54 -12 -111 -26 -128 -30 -30 -9 -30 -9 -4 -10 15 -1 71 10 125 24 54
14 99 25 100 25 0 0 4 -53 7 -117 4 -65 9 -134 13 -154 l6 -36 52 19 c28 10
60 23 71 28 11 5 47 21 80 35 78 35 157 88 224 151 l53 51 -63 44 c-38 27 -66
54 -70 69 -4 16 -7 19 -8 8 -1 -10 -4 -18 -7 -18 -3 0 -48 29 -100 65 -52 36
-95 65 -96 64 -2 0 -34 -10 -73 -21z"/>
<path d="M4363 1490 c0 -25 2 -35 4 -22 2 12 2 32 0 45 -2 12 -4 2 -4 -23z"/>
<path d="M3708 1273 c6 -2 18 -2 25 0 6 3 1 5 -13 5 -14 0 -19 -2 -12 -5z"/>
<path d="M3463 1263 c9 -2 25 -2 35 0 9 3 1 5 -18 5 -19 0 -27 -2 -17 -5z"/>
<path d="M3608 1263 c12 -2 32 -2 45 0 12 2 2 4 -23 4 -25 0 -35 -2 -22 -4z"/>
<path d="M3865 1053 c-124 -115 -220 -162 -347 -170 -43 -3 -78 -9 -78 -14 0
-13 132 -129 147 -129 26 0 196 60 233 82 46 27 116 94 141 135 l20 32 -22 53
c-12 29 -25 56 -28 60 -3 3 -33 -19 -66 -49z"/>
<path d="M4970 1064 c0 -8 11 -14 25 -14 14 0 25 4 25 9 0 5 -11 11 -25 13
-17 4 -25 1 -25 -8z"/>
<path d="M3675 630 c-16 -17 -27 -32 -24 -34 8 -8 119 16 113 25 -3 5 -18 16
-33 24 -27 13 -30 13 -56 -15z"/>
</g>
</svg>
